<?xml version="1.0" encoding="utf-8"?>
<!-- Generator: Adobe Illustrator 17.0.0, SVG Export Plug-In . SVG Version: 6.00 Build 0)  -->
<!DOCTYPE svg PUBLIC "-//W3C//DTD SVG 1.1//EN" "http://www.w3.org/Graphics/SVG/1.1/DTD/svg11.dtd">
<svg version="1.1" xmlns="http://www.w3.org/2000/svg" xmlns:xlink="http://www.w3.org/1999/xlink" x="0px" y="0px"
	 width="407.75px" height="377.685px" viewBox="0 0 407.75 377.685" enable-background="new 0 0 407.75 377.685"
	 xml:space="preserve">
<g id="Layer_1" display="none">
	<path display="inline" fill="#00ADEF" d="M21,60.368L165.936,40.63l0.065,139.802l-144.867,0.824L21,60.368z M165.867,196.54
		l0.114,139.924L21.114,316.547l-0.008-120.946L165.867,196.54z M183.436,38.047L375.609,10v168.654l-192.173,1.527L183.436,38.047z
		 M375.653,197.856l-0.045,167.894l-192.173-27.121l-0.268-141.086L375.653,197.856z"/>
</g>
<g id="Layer_2" display="none">
	<g display="inline">
		<g>
			<defs>
				<polygon id="SVGID_1_" points="47.287,373.983 349.367,373.983 349.367,3 47.287,3 47.287,373.983 				"/>
			</defs>
			<clipPath id="SVGID_2_">
				<use xlink:href="#SVGID_1_"  overflow="visible"/>
			</clipPath>
			<g transform="matrix(54.85033 0 0 -54.85033 -2466.06 4835.007)" clip-path="url(#SVGID_2_)">
				<path fill="#B3B3B3" d="M50.421,84.501c-0.008,0.856,0.699,1.267,0.731,1.287c-0.398,0.582-1.017,0.662-1.237,0.671
					c-0.526,0.053-1.028-0.31-1.295-0.31s-0.679,0.302-1.116,0.294c-0.575-0.009-1.104-0.334-1.399-0.848
					c-0.596-1.035-0.152-2.568,0.428-3.408c0.284-0.41,0.623-0.873,1.068-0.856c0.429,0.017,0.591,0.277,1.108,0.277
					c0.517,0,0.663-0.277,1.116-0.269c0.461,0.009,0.753,0.419,1.035,0.831c0.326,0.477,0.46,0.938,0.468,0.962
					C51.319,83.137,50.431,83.478,50.421,84.501"/>
			</g>
		</g>
		<path fill="#B3B3B3" d="M252.866,62.254c12.953-15.688,21.697-37.503,19.289-59.246c-18.659,0.749-41.244,12.439-54.641,28.127
			c-11.994,13.865-22.515,36.076-19.664,57.377C218.659,90.126,239.911,77.92,252.866,62.254"/>
	</g>
</g>
<g id="Layer_3">
	<g>
		<g>
			<path fill="#EDCE18" d="M353.962,306.829c-9.781-4.013-17.839-10.334-17.254-22.438c0.569-12.088-8.643-20.099-8.643-20.099
				s8.058-26.467,0.569-48.319c-7.474-21.885-32.202-56.947-51.18-83.398c-18.945-26.467-2.86-56.963-20.099-96.054
				c-17.271-39.091-62.114-36.8-86.273-20.115c-24.175,16.654-16.701,58.053-15.564,77.646c1.154,19.53,0.522,33.45-1.707,38.507
				c-2.275,5.057-17.824,23.607-28.189,39.123c-10.35,15.517-17.824,47.734-25.329,60.96c-7.474,13.226-2.291,25.297-2.291,25.297
				s-5.183,1.707-9.212,10.381c-4.03,8.595-12.072,12.625-26.45,15.469c-14.379,2.876-14.379,12.12-10.934,22.469
				c3.46,10.334,0.016,16.117-4.013,29.311c-4.03,13.194,16.101,17.254,35.647,19.514c19.562,2.323,41.414,14.979,59.839,17.271
				c18.377,2.307,24.144-12.641,24.144-12.641s20.699-4.63,42.537-5.167c21.869-0.585,42.537,4.598,42.537,4.598
				s4.03,9.196,11.503,13.209c7.49,4.03,23.591,4.614,33.94-6.289c10.365-10.95,37.97-24.728,53.486-33.371
				C366.587,324.036,363.742,310.827,353.962,306.829z M219.369,53.208c9.86,0,17.824,9.781,17.824,21.837
				c0,8.564-3.997,15.943-9.828,19.53c-1.486-0.648-3.049-1.311-4.709-2.022c3.508-1.738,6.004-6.21,6.004-11.424
				c0-6.794-4.203-12.309-9.402-12.309c-5.135,0-9.354,5.531-9.354,12.309c0,2.513,0.601,4.93,1.628,6.905
				c-3.066-1.217-5.894-2.354-8.106-3.192c-1.201-2.939-1.88-6.257-1.88-9.797C201.546,62.989,209.509,53.208,219.369,53.208z
				 M218.089,99.252c4.93,1.707,10.413,4.914,9.844,8.09c-0.585,3.192-3.176,3.192-9.844,7.269
				c-6.683,4.045-21.157,13.02-25.788,13.604c-4.661,0.585-7.253-2.022-12.182-5.199c-4.93-3.192-14.205-10.761-11.867-14.79
				c0,0,7.221-5.531,10.397-8.422c3.192-2.907,11.314-9.844,16.244-8.943C199.823,91.699,213.16,97.514,218.089,99.252z
				 M173.641,56.669c7.774,0,14.094,9.259,14.094,20.683c0,2.102-0.205,4.045-0.601,5.925c-1.896,0.648-3.824,1.691-5.688,3.271
				c-0.948,0.774-1.786,1.501-2.592,2.228c1.233-2.307,1.722-5.593,1.169-9.054c-1.043-6.241-5.199-10.792-9.323-10.144
				c-4.108,0.711-6.589,6.32-5.546,12.593c1.059,6.273,5.199,10.824,9.307,10.144c0.237-0.048,0.459-0.111,0.695-0.19
				c-2.006,1.928-3.855,3.587-5.736,4.993c-5.688-2.639-9.86-10.492-9.86-19.783C159.563,65.912,165.867,56.669,173.641,56.669z
				 M158.457,347.264c-1.833,8.248-11.487,14.236-11.487,14.236c-8.754,2.749-33.087-7.806-44.117-12.435
				c-11.013-4.567-39.06-5.988-42.742-10.066c-3.65-4.172,1.833-13.352,3.239-22.058c1.359-8.77-2.749-14.253-1.39-20.241
				c1.39-5.957,19.308-5.957,26.182-10.081c6.905-4.156,8.28-16.101,13.794-19.308c5.514-3.239,15.611,8.248,19.751,14.71
				c4.124,6.399,19.751,33.988,26.182,40.877C154.317,329.788,160.289,339.016,158.457,347.264z M260.167,267.121
				c-1.659,8.106-1.659,37.401-1.659,37.401s-17.824,24.697-45.459,28.742c-27.604,4.045-41.414,1.138-41.414,1.138l-15.517-17.807
				c0,0,12.056-1.754,10.35-13.826c-1.738-12.072-36.8-28.758-43.136-43.721c-6.305-14.932-1.138-40.261,6.921-52.918
				c8.043-12.641,13.194-40.229,21.253-49.457c8.058-9.165,14.363-28.726,11.487-37.369c0,0,17.254,20.715,29.311,17.286
				c12.072-3.46,39.139-23.607,43.136-20.13c4.013,3.46,38.523,79.352,41.951,103.512c3.46,24.144-2.307,42.537-2.307,42.537
				S261.873,259.063,260.167,267.121z M348.431,321.303c-5.372,4.93-35.268,17.002-44.227,26.419
				c-8.912,9.338-20.557,16.939-27.683,14.727c-7.174-2.26-13.415-12.072-10.287-26.387c3.112-14.268,5.815-29.911,5.372-38.855
				c-0.442-8.943-2.26-21.031,0-22.816c2.228-1.738,5.783-0.869,5.783-0.869s-1.754,16.954,8.501,21.458
				c10.254,4.424,25.013-1.786,29.485-6.289c4.487-4.44,7.616-11.139,7.616-11.139s4.456,2.26,4.013,9.386
				c-0.442,7.142,3.112,17.444,9.844,21C343.533,311.459,353.804,316.404,348.431,321.303z"/>
		</g>
	</g>
</g>
</svg>
