<?xml version="1.0" encoding="utf-8"?>
<!-- Generator: Adobe Illustrator 17.0.0, SVG Export Plug-In . SVG Version: 6.00 Build 0)  -->
<!DOCTYPE svg PUBLIC "-//W3C//DTD SVG 1.1//EN" "http://www.w3.org/Graphics/SVG/1.1/DTD/svg11.dtd">
<svg version="1.1" id="svg2811" xmlns:svg="http://www.w3.org/2000/svg"
	 xmlns="http://www.w3.org/2000/svg" xmlns:xlink="http://www.w3.org/1999/xlink" x="0px" y="0px" width="958.319px"
	 height="912.142px" viewBox="0 -2.858 958.319 912.142" enable-background="new 0 -2.858 958.319 912.142" xml:space="preserve">
<g id="layer1" transform="translate(-1074.235,-1639.219)">
	<g id="g25472" transform="translate(19.48863,19.49672)">
		<g>
			<defs>
				<rect id="SVGID_1_" x="1189.23" y="1639.199" width="708.666" height="870.31"/>
			</defs>
			<clipPath id="SVGID_2_">
				<use xlink:href="#SVGID_1_"  overflow="visible"/>
			</clipPath>
			<g id="g186" transform="matrix(54.85033,0,0,-54.85033,-1411.313,6454.729)" clip-path="url(#SVGID_2_)">
				<path id="path188" fill="#B3B3B3" d="M58.202,79.364c-0.018,2.008,1.64,2.972,1.715,3.019c-0.933,1.365-2.385,1.552-2.903,1.574
					c-1.235,0.125-2.411-0.727-3.037-0.727s-1.594,0.709-2.618,0.689c-1.348-0.02-2.589-0.783-3.283-1.989
					c-1.399-2.427-0.357-6.024,1.005-7.994c0.667-0.963,1.461-2.048,2.505-2.008c1.006,0.04,1.386,0.65,2.6,0.65
					s1.556-0.65,2.619-0.631c1.081,0.021,1.767,0.984,2.429,1.95c0.764,1.118,1.08,2.2,1.098,2.257
					C60.308,76.164,58.224,76.963,58.202,79.364"/>
			</g>
		</g>
		<path id="path190" fill="#B3B3B3" d="M1671.509,1778.207c30.386-36.804,50.9-87.98,45.25-138.989
			c-43.774,1.757-96.756,29.181-128.186,65.985c-28.137,32.528-52.82,84.634-46.131,134.604
			C1591.26,1843.592,1641.117,1814.958,1671.509,1778.207"/>
	</g>
</g>
</svg>
